<?xml version="1.0" standalone="no"?>
<svg xmlns="http://www.w3.org/2000/svg" viewBox="0 0 120.62400000000001 18.407999999999998" width="120.62400000000001" height="18.407999999999998"><path fill="#0a1256" fill-rule="nonzero" d="M11.76 18.07L0 18.07L0 16.92L1.39 16.70Q1.85 16.63 1.99 16.39Q2.14 16.15 2.14 15.48L2.14 15.48L2.14 3.77Q2.14 3.14 1.98 2.94Q1.82 2.74 1.34 2.64L1.34 2.64L0 2.42L0 1.27L6.86 1.27L6.86 2.42L5.28 2.64Q4.82 2.74 4.67 2.94Q4.51 3.14 4.51 3.77L4.51 3.77L4.51 16.75L7.22 16.75Q8.33 16.75 8.99 16.45Q9.65 16.15 10.10 15.32Q10.56 14.50 11.04 12.94L11.04 12.94L12.36 12.94L11.76 18.07ZM21.22 18.07L14.76 18.07L14.76 16.90L16.13 16.68Q16.61 16.61 16.74 16.37Q16.87 16.13 16.87 15.46L16.87 15.46L16.87 8.90Q16.87 8.02 16.72 7.74Q16.56 7.46 16.01 7.39L16.01 7.39L14.86 7.22L15.02 6.02L18.82 5.83L19.10 5.95L19.10 15.55Q19.10 16.15 19.26 16.38Q19.42 16.61 19.87 16.68L19.87 16.68L21.22 16.92L21.22 18.07ZM17.64 3.19L17.64 3.19Q16.94 3.19 16.49 2.75Q16.03 2.30 16.03 1.61L16.03 1.61Q16.03 0.91 16.49 0.46Q16.94 0 17.64 0L17.64 0Q18.36 0 18.82 0.44Q19.27 0.89 19.27 1.58L19.27 1.58Q19.27 2.28 18.82 2.74Q18.36 3.19 17.64 3.19ZM28.80 18.07L23.11 18.07L23.11 16.94L24.26 16.73Q24.65 16.66 24.77 16.43Q24.89 16.20 24.89 15.58L24.89 15.58L24.89 8.81Q24.89 7.94 24.74 7.67Q24.60 7.39 24.07 7.32L24.07 7.32L22.90 7.15L23.06 6.00L26.40 5.74L26.69 5.90L26.86 8.04L26.93 8.04Q27.36 7.30 28.01 6.74Q28.66 6.19 29.42 5.88Q30.19 5.57 30.98 5.57L30.98 5.57Q32.40 5.57 33.31 6.20Q34.22 6.84 34.58 8.09L34.58 8.09Q35.16 6.96 36.29 6.26Q37.42 5.57 38.66 5.57L38.66 5.57Q39.58 5.57 40.28 5.83Q40.99 6.10 41.47 6.62Q41.95 7.15 42.20 7.92Q42.46 8.69 42.46 9.67L42.46 9.67L42.46 15.77Q42.46 16.30 42.60 16.49Q42.74 16.68 43.20 16.75L43.20 16.75L44.33 16.94L44.33 18.07L38.64 18.07L38.64 16.97L39.50 16.78Q39.96 16.66 40.09 16.48Q40.22 16.30 40.22 15.77L40.22 15.77L40.22 10.37Q40.22 8.66 39.72 7.98Q39.22 7.30 37.97 7.30L37.97 7.30Q37.03 7.30 36.31 7.72Q35.59 8.14 35.20 8.88Q34.80 9.62 34.80 10.63L34.80 10.63L34.80 15.67Q34.80 16.22 34.91 16.42Q35.02 16.61 35.38 16.70L35.38 16.70L36.48 16.97L36.48 18.07L30.96 18.07L30.96 16.97L31.82 16.78Q32.28 16.66 32.41 16.48Q32.54 16.30 32.54 15.77L32.54 15.77L32.54 10.37Q32.54 8.66 32.05 7.98Q31.56 7.30 30.29 7.30L30.29 7.30Q28.87 7.30 28.00 8.22Q27.12 9.14 27.12 10.63L27.12 10.63L27.12 15.67Q27.12 16.22 27.24 16.42Q27.36 16.61 27.72 16.70L27.72 16.70L28.80 16.97L28.80 18.07ZM52.01 18.41L52.01 18.41Q50.23 18.41 48.91 17.65Q47.59 16.90 46.88 15.52Q46.18 14.14 46.18 12.26L46.18 12.26Q46.18 10.20 46.92 8.70Q47.66 7.20 49.06 6.38Q50.45 5.57 52.34 5.57L52.34 5.57Q54.10 5.57 55.37 6.31Q56.64 7.06 57.34 8.42Q58.03 9.79 58.03 11.66L58.03 11.66Q58.03 13.70 57.29 15.23Q56.54 16.75 55.20 17.58Q53.86 18.41 52.01 18.41ZM52.34 16.92L52.34 16.92Q53.90 16.92 54.74 15.71Q55.58 14.50 55.58 12.24L55.58 12.24Q55.58 9.82 54.61 8.40Q53.64 6.98 51.96 6.98L51.96 6.98Q50.35 6.98 49.48 8.16Q48.60 9.34 48.60 11.54L48.60 11.54Q48.60 14.06 49.60 15.49Q50.59 16.92 52.34 16.92ZM65.50 18.41L65.50 18.41Q64.25 18.41 63.38 17.94Q62.52 17.47 62.09 16.56Q61.66 15.65 61.66 14.30L61.66 14.30L61.66 8.81Q61.66 7.94 61.51 7.68Q61.37 7.42 60.84 7.32L60.84 7.32L59.78 7.15L59.98 6.00L63.60 5.74L63.89 5.90L63.89 13.61Q63.89 14.76 64.10 15.43Q64.32 16.10 64.82 16.39Q65.33 16.68 66.19 16.68L66.19 16.68Q67.68 16.68 68.56 15.78Q69.43 14.88 69.43 13.34L69.43 13.34L69.43 8.81Q69.43 7.94 69.29 7.68Q69.14 7.42 68.62 7.32L68.62 7.32L67.54 7.15L67.73 6.00L71.38 5.74L71.66 5.90L71.66 15.65Q71.66 16.22 71.82 16.43Q71.98 16.63 72.43 16.73L72.43 16.73L73.63 16.94L73.63 18.07L69.91 18.22L69.58 16.27L69.50 16.27Q68.88 17.02 68.26 17.48Q67.63 17.95 66.96 18.18Q66.29 18.41 65.50 18.41ZM76.92 18.41L75.91 18.41L75.53 14.28L76.87 14.18Q77.21 15.10 77.69 15.72Q78.17 16.34 78.82 16.66Q79.46 16.97 80.23 16.97L80.23 16.97Q81.29 16.97 81.89 16.43Q82.49 15.89 82.49 14.95L82.49 14.95Q82.49 14.18 81.90 13.73Q81.31 13.27 79.68 12.82L79.68 12.82Q78.62 12.53 77.88 12.18Q77.14 11.83 76.68 11.40Q76.22 10.97 76.02 10.43Q75.82 9.89 75.82 9.17L75.82 9.17Q75.82 8.06 76.32 7.26Q76.82 6.46 77.76 6.01Q78.70 5.57 79.94 5.57L79.94 5.57Q80.69 5.57 81.42 5.80Q82.15 6.02 82.58 6.38L82.58 6.38L82.78 5.57L83.83 5.57L84.14 9.48L82.78 9.36Q82.54 8.23 81.77 7.55Q81 6.86 79.99 6.86L79.99 6.86Q78.96 6.86 78.40 7.32Q77.83 7.78 77.83 8.62L77.83 8.62Q77.83 9.36 78.41 9.80Q78.98 10.25 80.59 10.73L80.59 10.73Q81.67 11.04 82.42 11.39Q83.16 11.74 83.62 12.17Q84.07 12.60 84.28 13.15Q84.48 13.70 84.48 14.42L84.48 14.42Q84.48 15.60 83.93 16.50Q83.38 17.40 82.42 17.90Q81.46 18.41 80.18 18.41L80.18 18.41Q79.25 18.41 78.47 18.19Q77.69 17.98 77.18 17.59L77.18 17.59L76.92 18.41ZM92.62 18.07L86.16 18.07L86.16 16.90L87.53 16.68Q88.01 16.61 88.14 16.37Q88.27 16.13 88.27 15.46L88.27 15.46L88.27 8.90Q88.27 8.02 88.12 7.74Q87.96 7.46 87.41 7.39L87.41 7.39L86.26 7.22L86.42 6.02L90.22 5.83L90.50 5.95L90.50 15.55Q90.50 16.15 90.66 16.38Q90.82 16.61 91.27 16.68L91.27 16.68L92.62 16.92L92.62 18.07ZM89.04 3.19L89.04 3.19Q88.34 3.19 87.89 2.75Q87.43 2.30 87.43 1.61L87.43 1.61Q87.43 0.91 87.89 0.46Q88.34 0 89.04 0L89.04 0Q89.76 0 90.22 0.44Q90.67 0.89 90.67 1.58L90.67 1.58Q90.67 2.28 90.22 2.74Q89.76 3.19 89.04 3.19ZM100.39 18.07L94.51 18.07L94.51 16.94L95.66 16.73Q96.05 16.66 96.17 16.43Q96.29 16.20 96.29 15.58L96.29 15.58L96.29 8.81Q96.29 7.94 96.14 7.67Q96.00 7.39 95.47 7.32L95.47 7.32L94.30 7.15L94.46 6.00L97.80 5.74L98.09 5.90L98.26 8.04L98.33 8.04Q98.76 7.27 99.42 6.72Q100.08 6.17 100.88 5.87Q101.69 5.57 102.53 5.57L102.53 5.57Q103.80 5.57 104.68 6.04Q105.55 6.50 106.01 7.42Q106.46 8.33 106.46 9.67L106.46 9.67L106.46 15.77Q106.46 16.30 106.61 16.49Q106.75 16.68 107.21 16.75L107.21 16.75L108.34 16.94L108.34 18.07L102.46 18.07L102.46 16.97L103.51 16.78Q103.97 16.68 104.10 16.49Q104.23 16.30 104.23 15.77L104.23 15.77L104.23 10.37Q104.23 9.24 104.00 8.57Q103.78 7.90 103.25 7.60Q102.72 7.30 101.83 7.30L101.83 7.30Q100.32 7.30 99.42 8.21Q98.52 9.12 98.52 10.63L98.52 10.63L98.52 15.67Q98.52 16.22 98.64 16.43Q98.76 16.63 99.12 16.70L99.12 16.70L100.39 16.97L100.39 18.07ZM115.92 18.41L115.92 18.41Q114.17 18.41 112.88 17.64Q111.60 16.87 110.89 15.46Q110.18 14.04 110.18 12.14L110.18 12.14Q110.18 10.15 110.92 8.68Q111.65 7.20 112.97 6.38Q114.29 5.57 116.04 5.57L116.04 5.57Q118.03 5.57 119.24 6.73Q120.46 7.90 120.46 9.82L120.46 9.82Q120.46 10.32 120.37 10.92Q120.29 11.52 120.12 12.17L120.12 12.17L112.61 12.17Q112.68 14.28 113.70 15.46Q114.72 16.63 116.47 16.63L116.47 16.63Q117.38 16.63 118.25 16.25Q119.11 15.86 119.78 15.19L119.78 15.19L120.62 16.03Q120.10 16.75 119.34 17.29Q118.58 17.83 117.71 18.12Q116.83 18.41 115.92 18.41ZM112.61 10.82L112.61 10.82L118.13 10.82Q118.18 10.58 118.19 10.31Q118.20 10.03 118.20 9.72L118.20 9.72Q118.20 8.30 117.59 7.57Q116.98 6.84 115.78 6.84L115.78 6.84Q114.41 6.84 113.60 7.86Q112.80 8.88 112.61 10.82Z"></path></svg>